<svg width="499" height="92" viewBox="0 0 499 92" fill="none" xmlns="http://www.w3.org/2000/svg">
<path d="M0.9375 85.5V4.875C0.9375 3.5625 1.3125 2.5 2.1875 1.625C3 0.8125 4.0625 0.375 5.4375 0.375H60.1875C61.5 0.375 62.5625 0.8125 63.4375 1.625C64.25 2.5 64.6875 3.5625 64.6875 4.875V14.5C64.6875 15.875 64.25 16.9375 63.4375 17.75C62.5625 18.5625 61.5 18.9375 60.1875 18.9375H23.1875V36.375H56.75C58.0625 36.375 59.125 36.8125 60 37.625C60.8125 38.5 61.25 39.5625 61.25 40.875V48.375C61.25 49.75 60.8125 50.8125 60 51.625C59.125 52.5 58.0625 52.875 56.75 52.875H23.1875V71.4375H62C63.3125 71.4375 64.375 71.875 65.25 72.6875C66.0625 73.5625 66.5 74.625 66.5 75.9375V85.5C66.5 86.875 66.0625 87.9375 65.25 88.75C64.375 89.625 63.3125 90 62 90H5.4375C4.0625 90 3 89.625 2.1875 88.75C1.3125 87.9375 0.9375 86.875 0.9375 85.5ZM67.415 86.6875C67.415 85.8125 67.8525 84.5625 68.79 83.0625L86.2275 57L69.915 31.625C69.04 30.4375 68.665 29.3125 68.665 28.1875C68.665 25.9375 70.3525 24.75 73.79 24.75H86.4775C88.3525 24.75 89.7275 25.625 90.54 27.25L99.2275 44.4375L107.728 27.25C108.478 25.625 109.79 24.75 111.665 24.75H124.603C127.915 24.75 129.603 25.9375 129.603 28.1875C129.603 29.1875 129.165 30.3125 128.415 31.625L112.165 57L130.103 82.9375C131.04 84.3125 131.54 85.625 131.54 86.8125C131.54 88.9375 129.79 90 126.415 90H113.603C111.728 90 110.353 89.25 109.603 87.6875L99.415 69.25L89.29 87.6875C88.4775 89.25 87.165 90 85.29 90H72.4775C69.1025 90 67.415 88.9375 67.415 86.6875ZM131.08 57.375C131.08 50.625 132.58 44.625 135.705 39.3125C138.768 34.0625 142.955 30 148.205 27.125C153.455 24.25 159.393 22.8125 165.893 22.8125C173.893 22.8125 180.768 24.8125 186.393 28.75C192.018 32.75 195.768 37.9375 197.768 44.3125C197.893 45 198.018 45.4375 198.018 45.6875C198.018 46.8125 197.58 47.6875 196.83 48.3125C196.08 49 195.018 49.3125 193.768 49.3125H182.643C180.518 49.3125 179.018 48.3125 178.018 46.25C176.768 43.9375 175.08 42.1875 173.018 41C170.893 39.8125 168.643 39.1875 166.143 39.1875C161.955 39.1875 158.518 40.9375 155.768 44.3125C153.018 47.75 151.643 52.125 151.643 57.375C151.643 62.8125 152.955 67.1875 155.705 70.5625C158.393 73.9375 161.893 75.5625 166.143 75.5625C168.893 75.5625 171.393 74.875 173.705 73.375C176.018 71.9375 177.768 69.8125 178.955 66.9375C179.768 64.6875 181.33 63.5 183.643 63.5H194.518C195.768 63.5 196.83 63.875 197.643 64.5625C198.455 65.25 198.893 66.125 198.893 67.1875C198.893 67.8125 198.83 68.25 198.768 68.5C196.768 76.1875 192.768 82 186.83 86C180.893 90 173.893 91.9375 165.893 91.9375C159.393 91.9375 153.518 90.5625 148.268 87.75C143.018 85 138.83 80.9375 135.705 75.625C132.58 70.375 131.08 64.25 131.08 57.375ZM199.87 57.375C199.87 50.75 201.37 44.75 204.37 39.5C207.37 34.25 211.495 30.125 216.87 27.1875C222.182 24.3125 228.182 22.8125 234.932 22.8125C238.307 22.8125 241.62 23.25 244.87 24.0625C248.12 24.875 251.182 26.125 254.057 27.875C256.932 29.625 259.495 31.8125 261.682 34.3125C263.87 36.875 265.62 40 266.87 43.6875C268.12 47.375 268.807 51.4375 268.807 55.8125C268.807 56.8125 268.745 57.625 268.745 58.125C268.682 58.6875 268.557 59.375 268.37 60.125C268.12 60.9375 267.745 61.5625 267.182 61.9375C266.62 62.3125 265.87 62.5 264.995 62.5H220.557C220.807 67.625 222.307 71.3125 224.932 73.5625C227.557 75.8125 230.87 76.9375 234.932 76.9375C240.057 76.9375 244.057 75.0625 247.057 71.3125C248.307 69.6875 249.807 68.875 251.432 68.875H262.307C263.682 68.875 264.745 69.1875 265.557 69.75C266.37 70.375 266.807 71.1875 266.807 72.1875C266.807 72.75 266.557 73.5 266.12 74.375C263.245 80.0625 259.057 84.4375 253.557 87.4375C248.057 90.4375 241.807 91.9375 234.932 91.9375C228.182 91.9375 222.182 90.5 216.87 87.5625C211.495 84.6875 207.37 80.5625 204.37 75.3125C201.37 70.0625 199.87 64.0625 199.87 57.375ZM220.807 50.1875H249.245C248.745 46.625 247.12 43.6875 244.37 41.3125C241.62 38.9375 238.432 37.75 234.932 37.75C231.557 37.75 228.557 38.9375 225.932 41.1875C223.245 43.4375 221.557 46.4375 220.807 50.1875ZM271.598 85.5V4.875C271.598 3.5625 271.973 2.5 272.785 1.625C273.598 0.8125 274.66 0.375 276.035 0.375H287.598C288.91 0.375 289.973 0.8125 290.785 1.625C291.598 2.5 292.035 3.5625 292.035 4.875V85.5C292.035 86.875 291.598 87.9375 290.785 88.75C289.973 89.625 288.91 90 287.598 90H276.035C274.66 90 273.598 89.625 272.785 88.75C271.973 87.9375 271.598 86.875 271.598 85.5ZM295.075 72.3125C295.075 71.1875 295.388 70.25 296.138 69.625C296.825 69 297.825 68.625 299.138 68.625H308.388C310.575 68.625 312.263 69.875 313.513 72.3125C315.2 75.5625 318.45 77.1875 323.2 77.1875C326.138 77.1875 328.388 76.625 330.013 75.4375C331.638 74.3125 332.45 72.75 332.45 70.8125C332.45 69.375 331.825 68.25 330.575 67.4375C329.325 66.625 327.513 65.9375 325.138 65.3125L313.075 62.375C311.138 61.9375 309.388 61.375 307.825 60.75C306.2 60.125 304.638 59.25 303.138 58.1875C301.638 57.125 300.325 55.875 299.325 54.5C298.263 53.125 297.388 51.5 296.763 49.5C296.138 47.5 295.825 45.3125 295.825 42.875C295.825 37 298.2 32.1875 303.013 28.4375C307.763 24.6875 314.075 22.8125 321.825 22.8125C325.138 22.8125 328.263 23.125 331.2 23.6875C334.075 24.3125 336.825 25.1875 339.388 26.4375C341.888 27.6875 344.013 29.4375 345.763 31.5625C347.513 33.75 348.7 36.3125 349.325 39.1875C349.388 39.4375 349.45 39.8125 349.45 40.1875C349.45 41.25 349.075 42.125 348.45 42.75C347.763 43.375 346.825 43.6875 345.638 43.6875H336.138C335.763 43.6875 335.388 43.6875 335.013 43.5625C334.638 43.5 334.388 43.4375 334.2 43.3125C333.95 43.25 333.7 43.0625 333.388 42.8125C333.013 42.5625 332.825 42.375 332.7 42.25L331.95 41.5L331.263 40.75C329.013 38.5 326.388 37.375 323.45 37.375C321.2 37.375 319.45 37.875 318.2 38.875C316.95 39.875 316.325 41.125 316.325 42.625C316.325 44.0625 316.888 45.1875 318.075 46C319.263 46.8125 321.013 47.5 323.325 48L336.138 51.1875C347.263 54 352.888 60.4375 352.888 70.4375C352.888 76.875 350.45 82.0625 345.7 86C340.95 90 334.013 91.9375 325.013 91.9375C307.95 91.9375 298.013 85.75 295.2 73.375C295.075 73.125 295.075 72.8125 295.075 72.3125ZM354.927 85.5V29.1875C354.927 27.875 355.302 26.8125 356.115 26C356.927 25.1875 357.99 24.75 359.365 24.75H370.927C372.24 24.75 373.302 25.1875 374.115 26C374.927 26.8125 375.365 27.875 375.365 29.1875V85.5C375.365 86.875 374.927 87.9375 374.115 88.75C373.302 89.625 372.24 90 370.927 90H359.365C357.99 90 356.927 89.625 356.115 88.75C355.302 87.9375 354.927 86.875 354.927 85.5ZM354.927 12.4375V4.875C354.927 3.5625 355.302 2.5 356.115 1.625C356.927 0.8125 357.99 0.375 359.365 0.375H370.927C372.24 0.375 373.302 0.8125 374.115 1.625C374.927 2.5 375.365 3.5625 375.365 4.875V12.4375C375.365 13.8125 374.927 14.875 374.115 15.6875C373.302 16.5625 372.24 16.9375 370.927 16.9375H359.365C357.99 16.9375 356.927 16.5625 356.115 15.6875C355.302 14.875 354.927 13.8125 354.927 12.4375ZM378.155 57.375C378.155 47.25 381.405 39 388.03 32.5C394.655 26.0625 403.03 22.8125 413.217 22.8125C423.342 22.8125 431.717 26.0625 438.342 32.5C444.967 39 448.28 47.25 448.28 57.375C448.28 67.5 444.967 75.8125 438.342 82.25C431.717 88.75 423.342 91.9375 413.217 91.9375C402.967 91.9375 394.592 88.75 388.03 82.3125C381.405 75.875 378.155 67.5625 378.155 57.375ZM398.717 57.375C398.717 62.875 400.03 67.3125 402.78 70.625C405.467 73.9375 408.967 75.5625 413.217 75.5625C417.405 75.5625 420.842 73.9375 423.592 70.625C426.28 67.3125 427.655 62.875 427.655 57.375C427.655 51.9375 426.28 47.5625 423.592 44.1875C420.842 40.875 417.405 39.1875 413.217 39.1875C408.967 39.1875 405.467 40.875 402.78 44.1875C400.03 47.5625 398.717 51.9375 398.717 57.375ZM451.008 85.5V29.1875C451.008 27.875 451.383 26.8125 452.195 26C453.008 25.1875 454.07 24.75 455.445 24.75H466.383C467.633 24.75 468.633 25.1875 469.508 26C470.383 26.8125 470.82 27.8125 470.82 29.0625V36H471.195C476.445 27.375 484.07 23.0625 494.133 23.0625C495.508 23.0625 496.57 23.5 497.383 24.25C498.195 25 498.633 26.0625 498.633 27.4375V39.4375C498.633 40.9375 497.945 41.625 496.57 41.625C496.32 41.625 495.82 41.625 495.195 41.5625C494.57 41.5625 494.133 41.5 493.883 41.5C487.008 41.5 481.508 43.5625 477.508 47.6875C473.445 51.8125 471.445 57.625 471.445 65.1875V85.5C471.445 86.875 471.008 87.9375 470.195 88.75C469.383 89.625 468.32 90 467.008 90H455.445C454.07 90 453.008 89.625 452.195 88.75C451.383 87.9375 451.008 86.875 451.008 85.5Z" fill="black"/>
</svg>
